Coordinates
version=1
nRows=17
nColumns=36
inDegrees=yes

Units are S.I. units (second, meters, Newtons, ...)
If the header above contains a line with 'inDegrees', this indicates whether rotational values are in degrees (yes) or radians (no).

endheader
time	pelvis_tilt	pelvis_list	pelvis_rotation	pelvis_tx	pelvis_ty	pelvis_tz	hip_flexion_r	hip_adduction_r	hip_rotation_r	knee_angle_r	knee_angle_r_beta	ankle_angle_r	subtalar_angle_r	mtp_angle_r	hip_flexion_l	hip_adduction_l	hip_rotation_l	knee_angle_l	knee_angle_l_beta	ankle_angle_l	subtalar_angle_l	mtp_angle_l	lumbar_extension	lumbar_bending	lumbar_rotation	arm_flex_r	arm_add_r	arm_rot_r	elbow_flex_r	pro_sup_r	arm_flex_l	arm_add_l	arm_rot_l	elbow_flex_l	pro_sup_l
      0.00000000	      2.11682246	      2.50527839	      3.12451653	     -0.16246088	      0.91582247	     -0.28801715	     24.27079524	     -1.95449985	     -4.33534764	      3.98954612	      0.06963072	      0.35063851	    -10.12105719	     -5.07377434	    -23.37510482	      2.81403512	      0.91473403	     11.17461493	      0.19503382	     12.99452864	      2.19821311	     -5.07377434	     -7.26215572	     -2.42992820	     -9.87494356	    -11.89456856	     -4.49058493	    -11.72059282	     27.12327467	    110.49569985	     16.07051942	     -8.56603221	      4.97541792	     51.09009339	    106.58900762
      0.01000000	      1.92488521	      1.92427628	      2.86386875	     -0.14638652	      0.91513111	     -0.28578037	     24.56537538	     -1.10066465	     -4.58445070	      5.39796477	      0.09421226	     -1.27596971	    -10.69555029	     -5.10795159	    -23.15349589	      2.07392642	      0.22783408	     12.81810952	      0.22371822	     11.51125625	      1.73831730	     -5.10795159	     -6.65799654	     -1.66108604	     -9.49040742	    -11.99544757	     -4.55544958	    -11.83002860	     26.73410804	    110.71477273	     15.17245058	     -8.19355729	      4.69364608	     50.60532125	    106.71257311
      0.02000000	      1.70490047	      1.39160441	      2.54447916	     -0.13045407	      0.91451302	     -0.28343148	     24.75264343	     -0.20298974	     -3.83408033	      6.55807846	      0.11446006	     -4.11581756	    -13.29689608	     -5.23544749	    -22.85082922	      1.43775545	     -0.11377141	     14.54428475	      0.25384566	      9.91429066	      0.98641457	     -5.23544749	     -6.05298792	     -0.97783067	     -9.21057356	    -11.90245218	     -4.60096119	    -12.14185310	     26.15225609	    111.35044323	     14.12957669	     -7.69934169	      3.70473282	     50.21459188	    107.19534454
      0.03000000	      1.71330161	      0.74201138	      2.23359341	     -0.11436815	      0.91447139	     -0.28107596	     24.77366315	      0.72844278	     -3.96131436	      8.03930151	      0.14031228	     -5.15892177	    -13.59014564	     -5.26013108	    -22.63431178	      0.61236902	     -0.84517915	     16.49063980	      0.28781596	      8.08705440	      0.61601676	     -5.26013108	     -5.75811003	     -0.13334361	     -8.75895416	    -11.93995573	     -4.67291167	    -12.24366974	     25.92550881	    111.41406880	     13.22310867	     -7.27242741	      3.42239106	     49.75575112	    107.21872953
      0.04000000	      1.51329967	      0.15466443	      1.83959340	     -0.09840626	      0.91446783	     -0.27868749	     24.97691918	      1.65806269	     -3.31145886	      9.53251452	      0.16637376	     -6.86959909	    -15.26897737	     -5.34744750	    -21.98789564	     -0.04073023	     -1.18287755	     18.74218789	      0.32711289	      5.77166054	     -0.58026818	     -5.34744750	     -5.18364958	      0.64471431	     -8.36887447	    -11.85385514	     -4.74687071	    -12.59908938	     25.55448649	    111.60409235	     12.22047690	     -6.66170993	      2.32362140	     49.10904390	    107.38134909
      0.05000000	      1.66843120	     -0.60531413	      1.47193015	     -0.08234536	      0.91531797	     -0.27619836	     24.70184097	      2.72919127	     -3.12828469	     11.04749450	      0.19281515	     -7.22633376	    -15.75079308	     -5.36971346	    -21.44170328	     -1.01736279	     -2.08366451	     21.41194990	      0.37370903	      3.34995053	     -1.10918421	     -5.36971346	     -5.09662598	      1.63632411	     -7.85299793	    -11.79228367	     -4.84988629	    -12.69347685	     25.40637170	    111.63497471	     11.30589871	     -6.17964653	      1.93894908	     48.54320191	    107.37738385
      0.06000000	      1.69242052	     -1.37780441	      1.01944553	     -0.06644730	      0.91630593	     -0.27359957	     24.52282267	      3.85936001	     -2.67700119	     12.56661381	      0.21932879	     -7.40661531	    -16.47299379	     -5.39455761	    -20.46270844	     -1.98826770	     -2.91157198	     24.49865131	      0.42758213	      0.46485028	     -2.04059638	     -5.39455761	     -4.86399285	      2.62016252	     -7.27185355	    -11.70041869	     -4.99156237	    -12.84683532	     25.27555872	    111.66020941	     10.37227628	     -5.56728290	      1.23272685	     47.71730615	    107.34398088
      0.07000000	      1.60270810	     -2.01462906	      0.52873591	     -0.05087488	      0.91746239	     -0.27108284	     24.39393016	      4.88442518	     -1.86862504	     14.02451907	      0.24477403	     -7.86750945	    -17.83124162	     -5.46575650	    -19.11123755	     -2.70049023	     -3.22879139	     27.83588163	      0.48582778	     -3.41059723	     -4.49787149	     -5.46575650	     -4.53292571	      3.48689825	     -6.69405194	    -11.55891709	     -5.09259607	    -13.18668031	     25.20756032	    111.74590098	      9.43296874	     -4.80459417	     -0.13422318	     46.67847326	    107.50622289
      0.08000000	      1.77117288	     -2.91717722	      0.07084434	     -0.03545048	      0.91913058	     -0.26840425	     23.78034503	      6.18148122	     -1.43914594	     15.17035997	      0.26477273	     -7.42263080	    -18.42032542	     -5.49428315	    -17.73841593	     -3.93653959	     -4.08887397	     31.63205212	      0.55208346	     -6.78408856	     -5.31408985	     -5.49428315	     -4.56604500	      4.63041750	     -6.05196302	    -11.36854825	     -5.25674226	    -13.26750351	     25.23316365	    111.78217807	      8.53701995	     -4.24932994	     -0.69252181	     45.75184726	    107.53779721
      0.09000000	      1.83362954	     -3.54190010	     -0.38085630	     -0.02064804	      0.92086362	     -0.26598920	     23.23357475	      7.16933185	     -0.89410017	     16.19877511	      0.28272196	     -7.17774843	    -19.17525303	     -5.57598760	    -16.02792287	     -4.72320676	     -4.29299590	     35.50382160	      0.61965858	    -11.21363289	     -7.98632160	     -5.57598760	     -4.54077167	      5.44957102	     -5.34901948	    -11.15771152	     -5.36926048	    -13.47826744	     25.43070178	    111.87266025	      7.83600288	     -3.55496670	     -1.65209160	     44.40558682	    107.84398133
      0.10000000	      1.89212872	     -4.27182099	     -0.80257884	     -0.00615150	      0.92265780	     -0.26351761	     22.49479989	      8.26352020	     -0.46127846	     16.85742917	      0.29421764	     -6.62714689	    -19.50941800	     -5.63612357	    -14.11753095	     -5.75638063	     -4.61331925	     39.56175478	      0.69048288	    -14.83437000	     -9.45602214	     -5.63612357	     -4.55445571	      6.37945257	     -4.63390353	    -10.93325831	     -5.50478627	    -13.52723497	     25.68056137	    111.93776518	      7.16321959	     -2.97518276	     -2.21431846	     42.99539014	    108.02040840
      0.11000000	      1.96267051	     -4.89799861	     -1.15244751	      0.00794200	      0.92456728	     -0.26119575	     21.61581171	      9.21052942	     -0.12131391	     17.25662872	      0.30118499	     -6.01145766	    -19.72157026	     -5.69162984	    -12.09971205	     -6.66029972	     -4.66180038	     43.53689729	      0.75986220	    -18.07031445	    -10.98461598	     -5.69162984	     -4.61967299	      7.16380123	     -3.91855391	    -10.68859943	     -5.64681913	    -13.52390979	     25.99285852	    111.99353283	      6.59054096	     -2.47922545	     -2.63737945	     41.46385364	    108.15666642
      0.12000000	      2.06605610	     -5.50660115	     -1.43248658	      0.02167791	      0.92660420	     -0.25898815	     20.53085918	     10.11999942	      0.17922610	     17.30930324	      0.30210433	     -5.28209963	    -19.84503154	     -5.71958841	    -10.04031697	     -7.55998519	     -4.54307358	     47.37383577	      0.82682941	    -20.19996452	    -11.84703201	     -5.71958841	     -4.76142044	      7.91548795	     -3.32459168	    -10.30543429	     -5.77642059	    -13.44647566	     26.29495151	    112.03301767	      5.97411906	     -2.08729847	     -2.90556117	     40.06693778	    108.15790295
      0.13000000	      2.12690612	     -5.92290365	     -1.62973467	      0.03501923	      0.92868094	     -0.25702955	     19.42843680	     10.77031629	      0.39977147	     17.20498876	      0.30028370	     -4.59143960	    -19.86478979	     -5.74449136	     -7.85552156	     -8.15451839	     -4.13646603	     50.98630594	      0.88987891	    -21.45895895	    -13.06771448	     -5.74449136	     -4.88459434	      8.43730668	     -2.75558770	     -9.91511021	     -5.89891889	    -13.29634018	     26.65291898	    112.07996520	      5.47490424	     -1.72988096	     -3.14399351	     38.45406231	    108.12886800
      0.14000000	      2.18717052	     -6.17615582	     -1.73672835	      0.04798236	      0.93087252	     -0.25527497	     18.27186284	     11.20338584	      0.54891866	     16.95347608	      0.29589398	     -3.90469698	    -19.77495968	     -5.76799535	     -5.62198398	     -8.49641054	     -3.56033886	     54.30617461	      0.94782155	    -21.72904703	    -14.42579449	     -5.76799535	     -5.02406513	      8.75365107	     -2.26196109	     -9.46519637	     -5.98386007	    -13.07671606	     27.04302746	    112.13230440	      5.05316537	     -1.46278356	     -3.28020917	     36.74018698	    108.09560875
      0.15000000	      2.17637338	     -6.22576017	     -1.79277009	      0.06057817	      0.93306486	     -0.25369920	     17.25364045	     11.35511162	      0.47106332	     16.76976291	      0.29268758	     -3.07707552	    -19.30755586	     -5.82548384	     -3.25014335	     -8.53761925	     -2.88216831	     57.33389793	      1.00066529	    -21.25003667	    -15.83595286	     -5.82548384	     -5.05687982	      8.82644913	     -1.65247536	     -9.09982270	     -6.07714852	    -12.62595962	     27.48583294	    112.19591397	      4.91782160	     -1.28675463	     -2.96943162	     34.45092099	    108.21559616
      0.16000000	      2.23863495	     -6.26860632	     -1.70712940	      0.07302578	      0.93550100	     -0.25223984	     16.00134435	     11.49311576	      0.49017506	     16.26016650	      0.28379344	     -2.32077358	    -18.98682067	     -5.86174116	     -0.94466926	     -8.56297611	     -2.15608285	     60.00611952	      1.04730436	    -19.75497856	    -16.90645741	     -5.86174116	     -5.20698485	      8.86270042	     -1.38090741	     -8.52054667	     -6.10174511	    -12.28952639	     27.87148546	    112.23542604	      4.51613636	     -1.22313086	     -2.76532844	     32.72506763	    108.22725494
